<svg width="422" height="79" viewBox="0 0 422 79" fill="none" xmlns="http://www.w3.org/2000/svg">
<g clip-path="url(#clip0)">
<path d="M61.713 67.468C56.571 64.672 52.542 60.809 49.626 55.877C46.708 50.947 45.251 45.384 45.251 39.189C45.251 32.996 46.724 27.433 49.671 22.501C52.617 17.571 56.662 13.706 61.803 10.91C66.945 8.114 72.702 6.715 79.077 6.715C84.248 6.715 88.969 7.617 93.239 9.421C97.508 11.225 101.116 13.841 104.063 17.269L96.486 24.395C91.915 19.465 86.293 16.998 79.618 16.998C75.288 16.998 71.409 17.945 67.981 19.84C64.553 21.735 61.877 24.365 59.953 27.732C58.028 31.101 57.067 34.919 57.067 39.188C57.067 43.459 58.028 47.277 59.953 50.644C61.877 54.012 64.553 56.642 67.981 58.537C71.409 60.431 75.288 61.378 79.618 61.378C86.293 61.378 91.915 58.883 96.486 53.891L104.063 61.107C101.115 64.535 97.492 67.151 93.193 68.955C88.893 70.759 84.157 71.661 78.986 71.661C72.612 71.663 66.854 70.264 61.713 67.468Z" fill="#064131"/>
<path d="M127.426 17.54H106.498V7.618H160.079V17.54H139.152V70.761H127.425V17.54H127.426Z" fill="#064131"/>
<path d="M221.958 43.655C224.002 46.331 225.025 49.653 225.025 53.622C225.025 59.095 222.919 63.319 218.711 66.295C214.501 69.272 208.367 70.76 200.309 70.76H168.918V7.618H198.505C205.961 7.618 211.704 9.077 215.734 11.993C219.762 14.91 221.778 18.924 221.778 24.035C221.778 27.162 221.056 29.929 219.613 32.334C218.169 34.74 216.185 36.605 213.66 37.926C217.147 39.069 219.914 40.979 221.958 43.655ZM180.645 16.819V34.228H197.243C201.332 34.228 204.473 33.492 206.669 32.018C208.864 30.545 209.962 28.396 209.962 25.569C209.962 22.682 208.864 20.504 206.669 19.029C204.473 17.556 201.332 16.819 197.243 16.819H180.645V16.819ZM213.209 52.449C213.209 46.376 208.668 43.338 199.588 43.338H180.645V61.56H199.588C208.667 61.56 213.209 58.524 213.209 52.449Z" fill="#DD8745"/>
<path d="M284.92 60.928V70.76H237.563V7.618H283.658V17.45H249.29V33.867H279.78V43.519H249.29V60.928H284.92V60.928Z" fill="#DD8745"/>
<path d="M309.68 67.468C304.539 64.672 300.509 60.809 297.593 55.877C294.676 50.947 293.218 45.384 293.218 39.189C293.218 32.996 294.691 27.433 297.637 22.501C300.583 17.571 304.628 13.706 309.769 10.91C314.911 8.114 320.669 6.715 327.043 6.715C332.214 6.715 336.935 7.617 341.205 9.421C345.474 11.225 349.082 13.841 352.029 17.269L344.452 24.395C339.881 19.465 334.259 16.998 327.584 16.998C323.254 16.998 319.375 17.945 315.947 19.84C312.519 21.734 309.843 24.365 307.919 27.732C305.994 31.101 305.033 34.919 305.033 39.188C305.033 43.459 305.995 47.277 307.919 50.644C309.843 54.012 312.519 56.642 315.947 58.537C319.375 60.431 323.254 61.378 327.584 61.378C334.259 61.378 339.881 58.883 344.452 53.891L352.029 61.107C349.082 64.535 345.458 67.151 341.159 68.955C336.859 70.759 332.124 71.661 326.952 71.661C320.58 71.663 314.822 70.264 309.68 67.468Z" fill="#DD8745"/>
<path d="M402.906 56.148H371.334L365.11 70.761H353.022L381.436 7.618H392.982L421.487 70.761H409.22L402.906 56.148ZM399.027 46.947L387.12 19.344L375.303 46.946H399.027V46.947Z" fill="#DD8745"/>
<path d="M62.888 24.922C55.48 14.449 40.123 8.354 28.683 7.619C28.135 6.488 27.523 5.344 26.857 4.201C26.783 4.051 26.703 3.904 26.62 3.761C25.778 2.311 23.178 -0.929 17.253 0.255C15.273 0.652 13.009 1.554 10.88 2.793C2.67601 7.567 1.85201 13.111 3.83201 16.753C3.85201 16.796 3.87301 16.838 3.89101 16.875C4.49301 18.071 5.18001 19.173 5.82001 20.109C-1.07499 32.024 -2.89399 52.008 6.18601 64.783C11.658 72.484 19.954 77.252 29.548 78.207C30.706 78.322 31.872 78.379 33.042 78.379C38.5 78.379 44.023 77.139 48.952 74.782H49.493L50.032 74.243C51.459 73.501 52.836 72.66 54.133 71.738C67.827 62.005 74.848 41.833 62.888 24.922Z" fill="#064131"/>
<path d="M21.149 7.291C23.028 10.48 24.219 12.48 24.255 13.39C24.339 15.503 22.343 20.569 24.415 17.296C26.202 14.473 27.631 23.732 23.663 25.722C19.615 27.752 22.619 21.428 17.234 20.803C15.659 20.62 13.937 20.1 13.398 19.412C12.004 17.633 10.791 16.159 9.685 13.962C9.123 12.844 11.111 10.511 14.277 8.669C17.443 6.827 20.514 6.213 21.149 7.291Z" fill="#DD8745"/>
<path d="M57.592 28.668C66.995 41.963 61.763 58.358 50.374 66.452C38.985 74.546 20.907 74.3 11.474 61.027C3.941 50.428 5.566 32.604 11.962 22.488C12.382 21.823 13.102 21.408 13.887 21.365C15.262 21.29 17.645 20.961 19.981 19.694C22.596 18.275 24.073 16.415 24.812 15.225C25.271 14.486 26.071 14.02 26.941 14.038C37.558 14.25 51.531 20.099 57.592 28.668Z" fill="#78B99E"/>
<path d="M57.946 40.28C60.747 53.469 51.403 64.226 40.093 66.655C28.783 69.084 15.113 62.982 12.282 49.8C11.274 45.108 11.385 41.871 13.442 37.1C14.454 34.753 46.049 27.823 53.401 31.236C55.587 32.252 57.622 38.757 57.946 40.28Z" fill="#FEAEBB"/>
<path d="M16.4216 12.316C19.5868 10.4739 21.6427 8.10415 21.0135 7.02298C20.3843 5.9418 17.3082 6.55865 14.143 8.40073C10.9778 10.2428 8.92191 12.6126 9.55113 13.6938C10.1803 14.7749 13.2564 14.1581 16.4216 12.316Z" fill="#EBB74A"/>
<path d="M54.623 32.344C54.9 34.511 45.714 36.962 34.411 38.407C23.108 39.852 13.842 39.491 13.565 37.323C13.288 35.155 22.103 32.004 33.407 30.558C44.711 29.113 54.346 30.177 54.623 32.344Z" fill="#FCD2DA"/>
<path d="M30.453 52.87C28.719 55.38 27.389 58.841 29.073 61.387C32.713 66.89 40.237 65.144 45.133 62.568C51.415 59.263 55.78 53.869 55.765 46.479C55.761 44.66 55.274 42.372 53.297 41.825C44.884 39.499 35.031 46.242 30.453 52.87Z" fill="#FD939F"/>
<path d="M53.846 54.739C56.127 59.174 63.435 47.824 57.024 47.085C53.843 46.718 52.802 52.706 53.846 54.739Z" fill="#FEFEFE"/>
<path d="M17.064 43.884C16.627 43.91 16.173 44.065 15.773 44.353C15.186 44.776 14.739 45.362 14.332 45.961C13.969 46.496 13.626 47.062 13.493 47.694C13.125 49.444 14.674 50.298 16.065 49.327C17.332 48.442 21.083 43.641 17.064 43.884Z" fill="#FD939F"/>
<path d="M14.187 42.757C17.503 42.242 18.269 37.429 18.276 34.177C18.28 31.977 16.765 26.276 14.362 26.369C9.32701 26.565 7.53701 43.789 14.187 42.757Z" fill="#FEFEFE"/>
<path d="M9.40501 45.162L10.908 47.821C10.961 47.915 11.089 47.932 11.164 47.855L17.669 41.235C17.724 41.179 17.812 41.171 17.876 41.215L29.527 49.285C29.592 49.33 29.679 49.322 29.734 49.266L39.856 39.043C39.903 38.995 39.975 38.982 40.036 39.009L52.085 44.326C52.157 44.358 52.241 44.333 52.284 44.268L57.587 36.397C57.65 36.304 57.785 36.301 57.851 36.392L61.334 41.131L57.588 39.287C57.51 39.249 57.416 39.279 57.374 39.355L53.198 47.091C53.158 47.165 53.068 47.196 52.991 47.162L40.479 41.706C40.415 41.678 40.34 41.695 40.293 41.747L30.322 53.04C30.266 53.104 30.17 53.113 30.103 53.061L18.364 44.089C18.3 44.04 18.21 44.046 18.152 44.102L10.547 51.603C10.455 51.694 10.298 51.645 10.274 51.518L9.10201 45.268C9.07101 45.092 9.31501 45.003 9.40501 45.162Z" fill="#AAF2D6"/>
<path d="M19.98 19.693C18.115 20.705 16.221 21.118 14.833 21.282C14.972 21.472 15.108 21.661 15.239 21.85C18.327 26.306 19.615 27.752 23.663 25.722C28.72 23.185 26.341 20.947 24.997 16.045C24.929 15.796 24.851 15.541 24.772 15.285C24.023 16.476 22.553 18.298 19.98 19.693Z" fill="#8BB876"/>
</g>
<defs>
<clipPath id="clip0">
<rect width="421.488" height="78.378" fill="white"/>
</clipPath>
</defs>
</svg>
