<svg width="460" height="225" viewBox="0 0 460 225" fill="none" xmlns="http://www.w3.org/2000/svg">
<g clip-path="url(#clip0)">
<path d="M177.157 193.679C162.397 185.653 150.829 174.562 142.458 160.405C134.082 146.252 129.898 130.282 129.898 112.5C129.898 94.721 134.126 78.751 142.587 64.594C151.043 50.441 162.655 39.346 177.414 31.32C192.174 23.292 208.703 19.278 227.003 19.278C241.848 19.278 255.399 21.868 267.659 27.047C279.913 32.225 290.271 39.735 298.733 49.575L276.981 70.031C263.86 55.878 247.72 48.798 228.559 48.798C216.129 48.798 204.994 51.518 195.154 56.955C185.314 62.392 177.631 69.946 172.108 79.612C166.581 89.283 163.822 100.244 163.822 112.499C163.822 124.759 166.581 135.719 172.108 145.385C177.631 155.055 185.314 162.604 195.154 168.043C204.994 173.481 216.129 176.199 228.559 176.199C247.72 176.199 263.861 169.038 276.981 154.706L298.733 175.422C290.272 185.262 279.869 192.772 267.53 197.95C255.185 203.13 241.59 205.719 226.746 205.719C208.446 205.721 191.918 201.707 177.157 193.679Z" fill="#064131"/>
<path d="M365.799 50.352H305.723V21.868H459.538V50.352H399.463V203.131H365.8V50.352H365.799Z" fill="#064131"/>
<path d="M180.531 71.545C159.266 41.478 115.18 23.983 82.341 21.873C80.767 18.627 79.012 15.343 77.1 12.061C76.887 11.631 76.659 11.207 76.421 10.797C74.003 6.63401 66.539 -2.66799 49.529 0.733006C43.845 1.87201 37.345 4.46101 31.233 8.02001C7.68199 21.723 5.31799 37.638 11 48.096C11.058 48.221 11.116 48.34 11.169 48.445C12.896 51.879 14.869 55.042 16.707 57.727C-3.08601 91.93 -8.30801 149.299 17.757 185.971C33.464 208.078 57.281 221.765 84.821 224.506C88.144 224.836 91.492 224.999 94.852 224.999C110.52 224.999 126.375 221.44 140.524 214.674H142.076L143.623 213.127C147.72 210.996 151.672 208.581 155.394 205.937C194.711 177.997 214.864 120.088 180.531 71.545Z" fill="#064131"/>
<path d="M60.712 20.93C66.105 30.084 69.525 35.827 69.629 38.437C69.869 44.503 64.141 59.045 70.089 49.651C75.22 41.547 79.322 68.126 67.931 73.839C56.31 79.668 64.934 61.512 49.475 59.719C44.954 59.195 40.011 57.7 38.464 55.725C34.463 50.617 30.979 46.388 27.807 40.079C26.193 36.87 31.902 30.171 40.989 24.883C50.076 19.595 58.889 17.835 60.712 20.93Z" fill="#DD8745"/>
<path d="M165.327 82.296C192.32 120.462 177.301 167.527 144.606 190.762C111.911 213.997 60.016 213.292 32.936 175.188C11.313 144.762 15.975 93.593 34.336 64.554C35.543 62.645 37.608 61.455 39.863 61.331C43.81 61.115 50.651 60.172 57.357 56.533C64.863 52.46 69.105 47.121 71.225 43.704C72.542 41.582 74.839 40.245 77.336 40.295C107.818 40.906 147.93 57.698 165.327 82.296Z" fill="#78B99E"/>
<path d="M166.344 115.631C174.385 153.491 147.562 184.372 115.093 191.346C82.624 198.32 43.384 180.803 35.257 142.961C32.364 129.491 32.682 120.198 38.586 106.503C41.49 99.767 132.19 79.871 153.294 89.67C159.572 92.585 165.416 111.26 166.344 115.631Z" fill="#FEAEBB"/>
<path d="M47.1425 35.3552C56.2291 30.067 62.1308 23.2637 60.3243 20.1596C58.5178 17.0554 49.6871 18.826 40.6005 24.1141C31.5139 29.4023 25.6122 36.2057 27.4187 39.3098C29.2252 42.4139 38.0559 40.6434 47.1425 35.3552Z" fill="#EBB74A"/>
<path d="M156.806 92.85C157.602 99.072 131.232 106.106 98.782 110.255C66.332 114.405 39.736 113.366 38.941 107.144C38.145 100.922 63.451 91.874 95.901 87.724C128.351 83.574 156.01 86.628 156.806 92.85Z" fill="#FCD2DA"/>
<path d="M87.42 151.774C82.442 158.98 78.623 168.916 83.457 176.224C93.906 192.02 115.506 187.008 129.559 179.614C147.593 170.126 160.124 154.641 160.082 133.427C160.072 128.204 158.672 121.638 152.996 120.068C128.849 113.39 100.564 132.745 87.42 151.774Z" fill="#FD939F"/>
<path d="M154.576 157.137C161.123 169.868 182.104 137.286 163.699 135.165C154.565 134.112 151.578 151.303 154.576 157.137Z" fill="#FEFEFE"/>
<path d="M48.984 125.978C47.731 126.054 46.426 126.498 45.279 127.323C43.593 128.536 42.31 130.221 41.144 131.94C40.103 133.475 39.118 135.1 38.736 136.914C37.679 141.937 42.126 144.389 46.118 141.601C49.756 139.062 60.524 125.28 48.984 125.978Z" fill="#FD939F"/>
<path d="M40.727 122.742C50.246 121.265 52.446 107.448 52.464 98.112C52.476 91.795 48.126 75.43 41.229 75.699C26.774 76.261 21.636 125.705 40.727 122.742Z" fill="#FEFEFE"/>
<path d="M26.998 129.647L31.312 137.281C31.464 137.55 31.831 137.598 32.047 137.378L50.72 118.374C50.878 118.213 51.13 118.189 51.316 118.318L84.763 141.484C84.948 141.612 85.199 141.589 85.357 141.429L114.414 112.082C114.549 111.945 114.755 111.906 114.931 111.984L149.521 127.249C149.727 127.34 149.968 127.27 150.094 127.084L165.317 104.489C165.497 104.223 165.886 104.215 166.076 104.473L176.076 118.078L165.323 112.786C165.099 112.676 164.828 112.762 164.709 112.982L152.722 135.189C152.607 135.401 152.349 135.491 152.128 135.394L116.209 119.732C116.024 119.651 115.809 119.699 115.675 119.85L87.052 152.27C86.891 152.453 86.616 152.48 86.422 152.332L52.723 126.576C52.539 126.435 52.28 126.452 52.115 126.614L30.284 148.148C30.019 148.409 29.57 148.269 29.502 147.903L26.138 129.961C26.041 129.445 26.74 129.19 26.998 129.647Z" fill="#AAF2D6"/>
<path d="M57.357 56.533C52.002 59.438 46.566 60.623 42.581 61.093C42.979 61.638 43.371 62.182 43.748 62.725C52.612 75.516 56.31 79.669 67.931 73.84C82.449 66.558 75.618 60.132 71.76 46.059C71.564 45.344 71.341 44.611 71.115 43.877C68.962 47.298 64.742 52.526 57.357 56.533Z" fill="#8BB876"/>
</g>
<defs>
<clipPath id="clip0">
<rect width="459.538" height="225" fill="white"/>
</clipPath>
</defs>
</svg>
